<svg width="377" height="542" viewBox="0 0 377 542" fill="none" xmlns="http://www.w3.org/2000/svg">
<path style="mix-blend-mode:screen" fill-rule="evenodd" clip-rule="evenodd" d="M219.415 362.444C218.615 362.644 217.715 362.544 216.815 362.544C212.315 367.844 206.715 372.744 200.015 377.144C200.015 378.044 199.915 379.044 199.715 380.044C198.915 382.744 197.115 384.944 194.715 386.144C191.515 387.744 187.715 387.644 184.715 385.744C184.582 385.678 184.448 385.578 184.315 385.444C178.382 388.111 171.782 390.511 164.515 392.644C164.315 393.544 164.015 394.344 163.515 395.144C162.215 397.544 160.115 399.244 157.515 399.944C154.715 400.644 152.015 400.144 149.715 398.744C149.015 398.244 148.315 397.644 147.715 397.044C141.315 398.444 134.515 399.711 127.315 400.844C127.015 401.644 126.615 402.444 126.015 403.244C124.415 405.344 122.115 406.744 119.515 407.144C117.215 407.544 114.915 407.044 113.015 405.844C111.915 405.144 110.915 404.244 110.215 403.144C109.948 403.211 109.715 403.244 109.515 403.244C109.648 405.911 109.782 408.578 109.915 411.244C110.115 413.778 110.282 416.311 110.415 418.844C110.748 418.978 111.048 419.144 111.315 419.344C114.115 421.044 115.815 423.844 116.015 426.944C116.115 429.544 115.215 431.944 113.415 433.844C112.715 434.544 111.915 435.144 111.115 435.644C111.315 442.144 111.215 448.544 110.815 454.744C114.115 456.844 115.815 460.444 115.315 464.044C114.915 466.544 113.615 468.844 111.415 470.444C110.615 471.044 109.715 471.444 108.715 471.844C107.415 478.544 105.415 484.944 102.515 490.944C104.515 494.044 104.815 498.044 102.815 501.444L102.715 501.644L102.515 501.844C100.215 504.944 96.5151 506.344 92.8151 505.744C88.6151 510.544 83.5151 515.044 77.3151 518.944C77.4151 519.744 77.3151 520.644 77.2151 521.444C76.6151 524.244 74.7151 526.544 72.1151 527.844C69.1151 529.344 65.5151 529.144 62.6151 527.444C62.4151 527.244 62.2151 527.044 61.9151 526.844C56.3818 529.178 50.2151 531.211 43.4151 532.944C43.1151 533.844 42.7151 534.745 42.2151 535.544C40.8151 537.844 38.7151 539.344 36.2151 539.844C33.8151 540.344 31.3151 539.944 29.2151 538.644C27.9151 537.744 26.7151 536.644 25.9151 535.244C25.9151 535.244 25.8818 535.244 25.8151 535.244C24.6151 534.444 23.6151 533.144 23.3151 531.544C23.0151 529.945 23.5151 528.344 24.4151 527.244C25.1151 523.144 27.9151 519.844 31.8151 518.944C34.0151 518.444 36.4151 518.944 38.5151 520.244C39.4151 520.744 40.2151 521.444 40.9151 522.244C47.0151 520.744 52.5151 518.944 57.5151 516.944C57.7151 513.444 59.5151 510.344 62.5151 508.844C64.7151 507.744 67.4151 507.644 70.1151 508.644C70.7151 508.944 71.3151 509.244 71.9151 509.544C71.9151 509.544 71.9151 509.578 71.9151 509.644C76.9151 506.444 80.9151 502.944 84.4151 499.144C82.9151 495.944 83.0151 492.544 84.8151 489.944C86.5151 487.144 89.7151 485.744 93.1151 485.844C95.4151 480.944 97.0151 475.644 98.1151 470.044C95.2151 467.944 93.7151 464.644 94.1151 461.344C94.6151 457.844 96.9151 455.244 100.015 453.844C100.315 448.144 100.315 442.244 100.215 436.044C99.8818 435.911 99.5818 435.744 99.3151 435.544C96.5151 433.844 94.8151 431.044 94.7151 427.944C94.5151 424.444 96.4151 421.244 99.4151 419.444C99.2818 416.978 99.1484 414.478 99.0151 411.944C98.8817 409.411 98.7151 406.911 98.5151 404.444C95.6484 404.711 92.7485 404.944 89.8151 405.144C89.4151 406.044 88.9151 406.844 88.3151 407.544C86.5151 409.544 84.1151 410.744 81.5151 410.944C79.5151 411.044 77.5151 410.544 75.7151 409.444C74.4151 408.644 73.3151 407.544 72.5151 406.344C71.4484 406.411 70.3818 406.478 69.3151 406.544C65.2151 407.744 60.3151 409.344 54.9151 411.444C54.4151 414.944 52.3151 418.044 49.1151 419.344C46.0151 420.544 42.7151 420.244 39.9151 418.544C39.7151 418.411 39.5151 418.278 39.3151 418.144C33.8151 420.744 28.1151 423.844 22.5151 427.444C22.8151 430.944 21.4151 434.444 18.6151 436.444C16.3151 437.944 13.7151 438.544 11.1151 438.044C10.3818 437.911 9.64843 437.711 8.9151 437.444C4.2151 441.444 -0.184898 445.844 -4.0849 450.644C-2.6849 453.744 -2.6849 457.344 -4.5849 460.244C-6.2849 463.144 -9.5849 464.744 -13.0849 464.644C-15.6849 469.944 -17.6849 475.644 -18.8849 481.744C-18.2849 482.211 -17.7516 482.711 -17.2849 483.244C-15.3849 485.444 -14.4849 487.944 -14.6849 490.344C-14.8849 494.244 -17.7849 497.544 -21.5849 498.944C-22.5849 500.044 -24.0849 500.744 -25.6849 500.744C-26.7849 500.744 -27.6849 500.444 -28.5849 499.944C-29.0516 499.611 -29.4516 499.244 -29.7849 498.844C-30.3182 498.644 -30.7849 498.411 -31.1849 498.144C-34.3849 496.144 -36.1849 492.544 -35.9849 488.844C-35.6849 485.644 -34.2849 482.944 -31.9849 481.344C-31.1849 480.844 -30.3849 480.444 -29.5849 480.144C-28.3849 473.944 -26.1849 466.844 -22.4849 459.444C-24.3849 456.344 -24.5849 452.244 -22.5849 448.844L-22.4849 448.644C-20.2849 445.344 -16.5849 443.844 -12.8849 444.244C-8.88489 439.044 -3.88489 433.744 2.11511 428.644C1.98178 427.911 1.94841 427.144 2.01508 426.344C2.21508 423.344 3.71509 420.744 6.21509 419.044C9.11509 417.044 12.9151 416.744 16.2151 418.244C21.7151 414.644 27.9151 411.244 34.8151 407.944C34.9151 406.944 35.0151 406.044 35.4151 405.144C36.4151 402.644 38.3151 400.644 40.8151 399.644C43.7151 398.444 47.1151 398.744 49.9151 400.444C50.2151 400.644 50.5151 400.944 50.8151 401.144C55.8818 399.278 61.2151 397.511 66.8151 395.844C67.2818 395.711 67.7151 395.611 68.1151 395.544C69.3818 395.478 70.6151 395.411 71.8151 395.344C73.4151 392.144 76.4151 389.844 80.1151 389.644C82.1151 389.544 84.1151 390.044 85.8151 391.044C87.1151 391.844 88.2151 392.944 89.0151 394.244C90.3484 394.111 91.6484 393.978 92.9151 393.844C92.8484 393.511 92.8151 393.144 92.8151 392.744C92.7151 390.344 93.6151 387.944 95.3151 386.044C96.0151 385.244 96.8151 384.744 97.7151 384.144C97.5151 377.944 97.5151 371.644 97.7151 365.244C94.6151 363.344 92.8151 359.944 93.0151 356.344C93.2151 353.844 94.4151 351.544 96.4151 349.844C97.1151 349.244 98.0151 348.744 98.8151 348.344C99.5151 342.044 100.515 335.644 101.815 329.244C99.2151 326.844 98.0151 323.244 98.8151 319.744L98.9151 319.544C99.6151 317.044 101.315 315.044 103.615 313.744C104.415 313.344 105.315 313.044 106.215 312.844C108.215 306.778 110.648 300.744 113.515 294.744C111.415 291.644 111.115 287.744 113.015 284.544C114.215 282.344 116.415 280.744 118.915 280.144C119.815 279.844 120.815 279.844 121.715 279.844C125.515 273.844 130.115 268.744 135.215 264.344C135.115 263.444 135.115 262.544 135.215 261.644C135.515 258.944 136.915 256.544 139.115 254.944L139.415 254.744C142.515 252.844 146.315 252.744 149.515 254.644C155.215 251.544 161.215 248.844 167.515 246.644C167.715 245.644 167.915 244.744 168.415 243.844C169.515 241.544 171.515 239.844 173.915 239.044C176.615 238.144 179.415 238.544 181.815 240.044C182.482 240.444 183.115 240.944 183.715 241.544C188.615 240.144 193.515 238.944 198.515 237.744C198.648 237.611 198.748 237.511 198.815 237.444C196.815 230.944 194.915 224.344 193.215 217.644C192.215 217.444 191.315 217.044 190.515 216.544C188.215 215.144 186.615 212.844 186.015 210.244C185.415 207.744 185.915 205.044 187.415 202.744C188.015 201.944 188.715 201.244 189.415 200.544C188.215 193.544 187.315 186.644 187.115 179.644C186.982 179.578 186.815 179.511 186.615 179.444C183.515 177.544 181.715 174.144 181.815 170.544C181.882 169.078 182.248 167.711 182.915 166.444C183.615 165.044 184.515 163.944 185.615 163.044C186.315 162.544 187.015 162.144 187.815 161.744C188.715 154.644 190.415 147.544 193.115 140.644C191.015 137.644 190.515 133.644 192.215 130.144L192.415 129.844C193.815 127.444 196.115 125.644 198.815 124.944C199.715 124.744 200.615 124.744 201.415 124.744C205.282 118.944 209.982 113.411 215.515 108.144C215.315 107.244 215.215 106.344 215.315 105.444C215.415 102.644 216.715 100.144 218.815 98.3444C221.615 95.8444 225.715 95.3445 229.315 96.9445C234.715 93.0778 240.648 89.4111 247.115 85.9445C247.115 85.0444 247.215 84.2445 247.415 83.4445C248.215 80.6444 250.115 78.4445 252.715 77.2445C255.815 75.7445 259.415 75.9445 262.315 77.7445C262.515 77.8778 262.715 78.0445 262.915 78.2445C266.982 76.3778 271.248 74.6111 275.715 72.9445C275.315 66.8778 275.115 60.8111 275.115 54.7444C274.982 54.6778 274.882 54.6111 274.815 54.5444C271.715 52.6444 269.915 49.5444 270.015 46.0444C270.115 43.6444 271.115 41.2444 273.115 39.4445C273.915 38.7444 274.815 38.2444 275.815 37.7444C276.348 31.3444 277.248 24.9778 278.515 18.6444C275.715 16.1444 274.415 12.4444 275.415 8.94445C276.115 6.44445 277.715 4.34445 280.015 3.04445C281.315 2.34445 282.715 1.94444 284.215 1.84444C285.515 1.04444 287.115 0.744445 288.715 1.24444C290.315 1.74444 291.415 2.84445 292.115 4.14445C295.415 6.74445 297.015 10.6444 296.015 14.4444C295.115 17.6444 292.515 20.0444 289.215 20.9444C288.015 26.7444 287.182 32.5778 286.715 38.4445C289.615 40.3445 291.415 43.4444 291.415 46.7444C291.315 50.2444 289.115 53.2444 286.015 54.8444C286.015 57.9778 286.048 61.0778 286.115 64.1444C287.015 63.6444 287.815 63.1444 288.815 62.8444C291.515 61.9444 294.515 62.3445 297.015 63.9445C297.615 64.2778 298.148 64.6778 298.615 65.1444C304.948 63.2111 311.548 61.3778 318.415 59.6444C318.615 58.7444 319.015 57.9444 319.415 57.1444C320.815 54.8444 323.015 53.2444 325.615 52.6444C328.115 51.9444 330.815 52.4444 333.115 53.8444C333.915 54.3444 334.615 54.9444 335.215 55.6444C341.682 54.2444 348.382 52.9111 355.315 51.6444C355.615 50.7444 355.915 49.9444 356.515 49.1444C358.015 46.9444 360.315 45.4445 362.815 45.0444C365.215 44.5444 367.715 45.0444 369.715 46.3444C371.215 47.2444 372.315 48.4444 373.215 49.8444C374.515 50.6444 375.515 51.9445 375.715 53.5444C376.015 55.2444 375.515 56.7444 374.615 57.9445C373.715 61.9445 370.615 65.2444 366.615 66.0444C364.215 66.4444 361.815 65.9445 359.715 64.6444C358.715 64.0444 357.848 63.3111 357.115 62.4445C350.448 63.7111 343.982 65.0111 337.715 66.3444C336.615 69.7444 334.015 72.5444 330.515 73.3444C328.015 73.9444 325.415 73.5444 323.115 72.1444C322.315 71.6444 321.615 71.0444 321.015 70.3444C314.348 72.0111 307.982 73.7444 301.915 75.5444C301.215 79.0444 298.815 82.0444 295.315 83.1444C294.315 83.4445 293.315 83.5444 292.315 83.5444C291.815 85.8444 290.315 87.8444 288.315 89.3444C289.048 95.2778 289.915 101.278 290.915 107.344C291.648 107.544 292.348 107.844 293.015 108.244C295.415 109.744 296.915 112.044 297.415 114.644C298.015 118.144 296.415 121.444 293.715 123.744C294.782 129.744 295.915 135.778 297.115 141.844C297.915 142.144 298.615 142.444 299.315 142.844C301.715 144.344 303.215 146.544 303.715 149.144C304.215 151.544 303.615 154.044 302.215 156.144C301.615 156.944 300.915 157.644 300.115 158.244C300.315 159.244 300.515 160.244 300.715 161.244C300.715 161.378 300.715 161.511 300.715 161.644C301.315 167.744 301.315 173.344 300.915 178.544C303.815 180.744 305.315 184.344 304.715 188.044L304.615 188.244C304.015 190.944 302.415 193.144 299.915 194.544C299.115 195.044 298.215 195.344 297.415 195.544C294.815 202.744 291.115 208.744 286.515 213.944C286.715 214.678 286.815 215.444 286.815 216.244C286.815 217.644 286.615 219.044 286.115 220.244L285.915 220.544C285.315 221.878 284.448 222.978 283.315 223.844C281.115 225.644 278.215 226.444 275.415 225.944C274.515 225.744 273.815 225.444 273.015 225.144C267.515 228.544 261.515 231.444 255.115 233.944C254.915 234.844 254.715 235.844 254.215 236.744C253.115 239.144 251.115 240.844 248.715 241.644C246.115 242.544 243.215 242.244 240.715 240.644C240.048 240.244 239.448 239.778 238.915 239.244C232.915 240.944 226.815 242.444 220.615 243.844C220.415 244.844 220.015 245.744 219.515 246.644C218.315 248.444 216.615 249.844 214.615 250.444C214.748 250.778 214.848 251.111 214.915 251.444C217.015 257.544 219.015 263.644 220.815 269.644C221.948 269.911 223.015 270.344 224.015 270.944C226.115 272.244 227.615 274.244 228.315 276.544C229.115 279.144 228.815 281.844 227.415 284.244C227.015 285.044 226.415 285.744 225.715 286.444C227.515 293.444 229.015 300.344 229.915 307.044C230.315 307.244 230.715 307.478 231.115 307.744C234.015 309.444 235.715 312.444 235.815 315.744C235.915 318.644 234.915 321.344 232.815 323.344C232.215 323.944 231.515 324.444 230.815 324.844C230.515 332.544 229.115 339.844 226.215 346.844C226.715 347.644 227.215 348.444 227.515 349.244C228.415 352.044 228.015 355.044 226.515 357.644C225.215 360.144 222.615 361.944 219.415 362.444ZM204.515 254.844C204.382 254.511 204.282 254.211 204.215 253.944C203.015 253.678 201.848 253.211 200.715 252.544C199.415 251.744 198.315 250.544 197.515 249.244C193.915 250.178 190.315 251.111 186.715 252.044C186.015 255.544 183.715 258.344 180.315 259.344C177.915 260.144 175.115 259.744 172.715 258.344C172.115 257.944 171.548 257.511 171.015 257.044C165.515 259.044 160.115 261.344 155.215 264.044C155.415 267.444 154.015 270.644 151.215 272.444C148.615 274.344 145.115 274.544 142.015 273.044C137.815 276.644 134.215 280.744 131.215 285.444C133.015 288.444 133.315 292.044 131.615 295.044C129.815 298.044 126.715 299.644 123.315 299.744C120.782 305.144 118.615 310.544 116.815 315.944C119.315 318.444 120.415 321.944 119.415 325.144C118.615 328.444 115.915 330.844 112.615 331.744C111.415 337.611 110.482 343.478 109.815 349.344C112.815 351.344 114.515 354.544 114.315 357.844C114.115 361.244 111.815 364.144 108.715 365.644C108.515 371.744 108.515 377.844 108.715 383.844C108.982 383.911 109.248 384.044 109.515 384.244C110.815 385.044 111.915 386.144 112.715 387.444C113.915 386.744 115.115 386.244 116.515 386.044C118.715 385.744 121.015 386.144 123.015 387.444C124.082 388.111 125.015 388.944 125.815 389.944C132.615 388.878 139.048 387.644 145.115 386.244C146.115 382.844 148.715 380.144 152.215 379.344C154.615 378.644 157.315 379.044 159.715 380.444C160.415 380.944 161.015 381.444 161.615 382.044C168.215 380.044 174.215 377.844 179.615 375.444C179.915 371.944 181.715 368.744 184.815 367.244C187.815 365.744 191.315 365.844 194.415 367.644C199.815 364.111 204.315 360.211 207.915 355.944C207.648 355.344 207.448 354.744 207.315 354.144C206.615 351.744 206.915 349.344 208.015 347.044L208.115 346.844C209.415 344.544 211.715 343.044 214.515 342.444C215.048 342.311 215.615 342.211 216.215 342.144C218.315 336.744 219.415 330.944 219.715 324.844C219.648 324.778 219.548 324.711 219.415 324.644C218.948 324.311 218.482 323.978 218.015 323.644C215.915 321.844 214.615 319.344 214.515 316.744C214.415 313.244 216.215 310.144 218.915 308.244C218.115 302.144 216.715 295.744 215.115 289.344C214.015 289.044 213.015 288.644 212.115 288.144C210.015 286.844 208.515 284.844 207.815 282.544C206.815 279.144 207.915 275.544 210.415 272.944C208.515 266.944 206.515 260.944 204.515 254.844ZM286.315 143.844C285.182 137.844 284.048 131.778 282.915 125.644C282.182 125.378 281.448 125.044 280.715 124.644C278.415 123.244 276.815 120.944 276.315 118.244C275.915 115.844 276.515 113.344 278.015 111.244C278.615 110.444 279.315 109.744 280.115 109.144C279.115 102.944 278.215 96.7444 277.415 90.5444C276.882 90.3444 276.348 90.0778 275.815 89.7445C274.315 88.8445 273.115 87.5444 272.315 86.0444C270.648 86.7111 269.015 87.4111 267.415 88.1444C267.115 91.6444 265.215 94.9445 261.915 96.4445C259.515 97.6444 256.715 97.6444 254.015 96.5444C253.515 96.3444 252.915 96.0445 252.315 95.7445C252.248 95.6778 252.182 95.6111 252.115 95.5444C246.182 98.7444 240.748 102.111 235.815 105.644C236.215 108.944 235.115 112.344 232.615 114.644C229.915 116.944 226.215 117.544 222.815 116.344C218.148 120.811 214.148 125.511 210.815 130.444C212.615 133.444 212.815 137.044 211.215 139.944C209.615 142.944 206.615 144.744 203.215 145.044C200.915 150.844 199.515 156.744 198.715 162.844C199.315 163.244 199.848 163.678 200.315 164.144C201.248 165.144 201.948 166.211 202.415 167.344C202.948 168.611 203.215 169.944 203.215 171.344C203.115 174.744 201.015 177.744 198.015 179.544C198.215 185.744 199.015 192.044 200.115 198.444C200.915 198.744 201.715 199.044 202.415 199.544C204.715 200.944 206.315 203.144 206.915 205.644C207.615 209.244 206.315 212.644 203.815 215.044C205.148 220.111 206.582 225.178 208.115 230.244C208.415 230.244 208.615 230.044 208.915 230.044C211.315 229.444 213.815 229.944 215.915 231.244C216.715 231.744 217.515 232.444 218.215 233.244C224.215 231.744 230.115 230.344 235.815 228.744C236.515 225.344 238.715 222.544 241.915 221.444C244.515 220.544 247.415 220.944 249.815 222.444C250.415 222.778 250.948 223.178 251.415 223.644C256.915 221.444 262.015 219.044 266.615 216.144C266.548 215.544 266.515 214.911 266.515 214.244C266.615 211.444 267.715 208.944 269.715 207.344C270.782 206.544 271.982 206.011 273.315 205.744C274.448 205.478 275.648 205.411 276.915 205.544C277.515 205.611 278.082 205.744 278.615 205.944C282.015 202.044 284.715 197.644 286.615 192.444C284.215 190.144 283.115 186.944 283.715 183.944C284.315 180.744 286.715 178.244 289.915 177.044C290.315 172.644 290.315 168.044 289.815 162.944C289.682 162.078 289.515 161.211 289.315 160.344C288.615 160.044 287.815 159.744 287.115 159.244C284.815 157.844 283.215 155.644 282.715 153.044C282.215 150.444 283.015 147.644 284.715 145.444C285.182 144.844 285.715 144.311 286.315 143.844Z" fill="#5D8AA8" fill-opacity="0.15"/>
<path fill-rule="evenodd" clip-rule="evenodd" d="M219.415 362.444C218.615 362.644 217.715 362.544 216.815 362.544C212.315 367.844 206.715 372.744 200.015 377.144C200.015 378.044 199.915 379.044 199.715 380.044C198.915 382.744 197.115 384.944 194.715 386.144C191.515 387.744 187.715 387.644 184.715 385.744C184.582 385.678 184.448 385.578 184.315 385.444C178.382 388.111 171.782 390.511 164.515 392.644C164.315 393.544 164.015 394.344 163.515 395.144C162.215 397.544 160.115 399.244 157.515 399.944C154.715 400.644 152.015 400.144 149.715 398.744C149.015 398.244 148.315 397.644 147.715 397.044C141.315 398.444 134.515 399.711 127.315 400.844C127.015 401.644 126.615 402.444 126.015 403.244C124.415 405.344 122.115 406.744 119.515 407.144C117.215 407.544 114.915 407.044 113.015 405.844C111.915 405.144 110.915 404.244 110.215 403.144C109.948 403.211 109.715 403.244 109.515 403.244C109.648 405.911 109.782 408.578 109.915 411.244C110.115 413.778 110.282 416.311 110.415 418.844C110.748 418.978 111.048 419.144 111.315 419.344C114.115 421.044 115.815 423.844 116.015 426.944C116.115 429.544 115.215 431.944 113.415 433.844C112.715 434.544 111.915 435.144 111.115 435.644C111.315 442.144 111.215 448.544 110.815 454.744C114.115 456.844 115.815 460.444 115.315 464.044C114.915 466.544 113.615 468.844 111.415 470.444C110.615 471.044 109.715 471.444 108.715 471.844C107.415 478.544 105.415 484.944 102.515 490.944C104.515 494.044 104.815 498.044 102.815 501.444L102.715 501.644L102.515 501.844C100.215 504.944 96.5151 506.344 92.8151 505.744C88.6151 510.544 83.5151 515.044 77.3151 518.944C77.4151 519.744 77.3151 520.644 77.2151 521.444C76.6151 524.244 74.7151 526.544 72.1151 527.844C69.1151 529.344 65.5151 529.144 62.6151 527.444C62.4151 527.244 62.2151 527.044 61.9151 526.844C56.3818 529.178 50.2151 531.211 43.4151 532.944C43.1151 533.844 42.7151 534.744 42.2151 535.544C40.8151 537.844 38.7151 539.344 36.2151 539.844C33.8151 540.344 31.3151 539.944 29.2151 538.644C27.9151 537.744 26.7151 536.644 25.9151 535.244C25.9151 535.244 25.8818 535.244 25.8151 535.244C24.6151 534.444 23.6151 533.144 23.3151 531.544C23.0151 529.944 23.5151 528.344 24.4151 527.244C25.1151 523.144 27.9151 519.844 31.8151 518.944C34.0151 518.444 36.4151 518.944 38.5151 520.244C39.4151 520.744 40.2151 521.444 40.9151 522.244C47.0151 520.744 52.5151 518.944 57.5151 516.944C57.7151 513.444 59.5151 510.344 62.5151 508.844C64.7151 507.744 67.4151 507.644 70.1151 508.644C70.7151 508.944 71.3151 509.244 71.9151 509.544C71.9151 509.544 71.9151 509.578 71.9151 509.644C76.9151 506.444 80.9151 502.944 84.4151 499.144C82.9151 495.944 83.0151 492.544 84.8151 489.944C86.5151 487.144 89.7151 485.744 93.1151 485.844C95.4151 480.944 97.0151 475.644 98.1151 470.044C95.2151 467.944 93.7151 464.644 94.1151 461.344C94.6151 457.844 96.9151 455.244 100.015 453.844C100.315 448.144 100.315 442.244 100.215 436.044C99.8818 435.911 99.5818 435.744 99.3151 435.544C96.5151 433.844 94.8151 431.044 94.7151 427.944C94.5151 424.444 96.4151 421.244 99.4151 419.444C99.2818 416.978 99.1484 414.478 99.0151 411.944C98.8817 409.411 98.7151 406.911 98.5151 404.444C95.6484 404.711 92.7485 404.944 89.8151 405.144C89.4151 406.044 88.9151 406.844 88.3151 407.544C86.5151 409.544 84.1151 410.744 81.5151 410.944C79.5151 411.044 77.5151 410.544 75.7151 409.444C74.4151 408.644 73.3151 407.544 72.5151 406.344C71.4484 406.411 70.3818 406.478 69.3151 406.544C65.2151 407.744 60.3151 409.344 54.9151 411.444C54.4151 414.944 52.3151 418.044 49.1151 419.344C46.0151 420.544 42.7151 420.244 39.9151 418.544C39.7151 418.411 39.5151 418.278 39.3151 418.144C33.8151 420.744 28.1151 423.844 22.5151 427.444C22.8151 430.944 21.4151 434.444 18.6151 436.444C16.3151 437.944 13.7151 438.544 11.1151 438.044C10.3818 437.911 9.64843 437.711 8.9151 437.444C4.2151 441.444 -0.1849 445.844 -4.0849 450.644C-2.6849 453.744 -2.6849 457.344 -4.5849 460.244C-6.2849 463.144 -9.5849 464.744 -13.0849 464.644C-15.6849 469.944 -17.6849 475.644 -18.8849 481.744C-18.2849 482.211 -17.7516 482.711 -17.2849 483.244C-15.3849 485.444 -14.4849 487.944 -14.6849 490.344C-14.8849 494.244 -17.7849 497.544 -21.5849 498.944C-22.5849 500.044 -24.0849 500.744 -25.6849 500.744C-26.7849 500.744 -27.6849 500.444 -28.5849 499.944C-29.0516 499.611 -29.4516 499.244 -29.7849 498.844C-30.3182 498.644 -30.7849 498.411 -31.1849 498.144C-34.3849 496.144 -36.1849 492.544 -35.9849 488.844C-35.6849 485.644 -34.2849 482.944 -31.9849 481.344C-31.1849 480.844 -30.3849 480.444 -29.5849 480.144C-28.3849 473.944 -26.1849 466.844 -22.4849 459.444C-24.3849 456.344 -24.5849 452.244 -22.5849 448.844L-22.4849 448.644C-20.2849 445.344 -16.5849 443.844 -12.8849 444.244C-8.88489 439.044 -3.88489 433.744 2.11511 428.644C1.98178 427.911 1.94841 427.144 2.01508 426.344C2.21508 423.344 3.71509 420.744 6.21509 419.044C9.11509 417.044 12.9151 416.744 16.2151 418.244C21.7151 414.644 27.9151 411.244 34.8151 407.944C34.9151 406.944 35.0151 406.044 35.4151 405.144C36.4151 402.644 38.3151 400.644 40.8151 399.644C43.7151 398.444 47.1151 398.744 49.9151 400.444C50.2151 400.644 50.5151 400.944 50.8151 401.144C55.8818 399.278 61.2151 397.511 66.8151 395.844C67.2818 395.711 67.7151 395.611 68.1151 395.544C69.3818 395.478 70.6151 395.411 71.8151 395.344C73.4151 392.144 76.4151 389.844 80.1151 389.644C82.1151 389.544 84.1151 390.044 85.8151 391.044C87.1151 391.844 88.2151 392.944 89.0151 394.244C90.3484 394.111 91.6484 393.978 92.9151 393.844C92.8484 393.511 92.8151 393.144 92.8151 392.744C92.7151 390.344 93.6151 387.944 95.3151 386.044C96.0151 385.244 96.8151 384.744 97.7151 384.144C97.5151 377.944 97.5151 371.644 97.7151 365.244C94.6151 363.344 92.8151 359.944 93.0151 356.344C93.2151 353.844 94.4151 351.544 96.4151 349.844C97.1151 349.244 98.0151 348.744 98.8151 348.344C99.5151 342.044 100.515 335.644 101.815 329.244C99.2151 326.844 98.0151 323.244 98.8151 319.744L98.9151 319.544C99.6151 317.044 101.315 315.044 103.615 313.744C104.415 313.344 105.315 313.044 106.215 312.844C108.215 306.778 110.648 300.744 113.515 294.744C111.415 291.644 111.115 287.744 113.015 284.544C114.215 282.344 116.415 280.744 118.915 280.144C119.815 279.844 120.815 279.844 121.715 279.844C125.515 273.844 130.115 268.744 135.215 264.344C135.115 263.444 135.115 262.544 135.215 261.644C135.515 258.944 136.915 256.544 139.115 254.944L139.415 254.744C142.515 252.844 146.315 252.744 149.515 254.644C155.215 251.544 161.215 248.844 167.515 246.644C167.715 245.644 167.915 244.744 168.415 243.844C169.515 241.544 171.515 239.844 173.915 239.044C176.615 238.144 179.415 238.544 181.815 240.044C182.482 240.444 183.115 240.944 183.715 241.544C188.615 240.144 193.515 238.944 198.515 237.744C198.648 237.611 198.748 237.511 198.815 237.444C196.815 230.944 194.915 224.344 193.215 217.644C192.215 217.444 191.315 217.044 190.515 216.544C188.215 215.144 186.615 212.844 186.015 210.244C185.415 207.744 185.915 205.044 187.415 202.744C188.015 201.944 188.715 201.244 189.415 200.544C188.215 193.544 187.315 186.644 187.115 179.644C186.982 179.578 186.815 179.511 186.615 179.444C183.515 177.544 181.715 174.144 181.815 170.544C181.882 169.078 182.248 167.711 182.915 166.444C183.615 165.044 184.515 163.944 185.615 163.044C186.315 162.544 187.015 162.144 187.815 161.744C188.715 154.644 190.415 147.544 193.115 140.644C191.015 137.644 190.515 133.644 192.215 130.144L192.415 129.844C193.815 127.444 196.115 125.644 198.815 124.944C199.715 124.744 200.615 124.744 201.415 124.744C205.282 118.944 209.982 113.411 215.515 108.144C215.315 107.244 215.215 106.344 215.315 105.444C215.415 102.644 216.715 100.144 218.815 98.3444C221.615 95.8444 225.715 95.3445 229.315 96.9445C234.715 93.0778 240.648 89.4111 247.115 85.9445C247.115 85.0445 247.215 84.2445 247.415 83.4445C248.215 80.6445 250.115 78.4445 252.715 77.2445C255.815 75.7445 259.415 75.9445 262.315 77.7445C262.515 77.8778 262.715 78.0445 262.915 78.2445C266.982 76.3778 271.248 74.6111 275.715 72.9445C275.315 66.8778 275.115 60.8111 275.115 54.7444C274.982 54.6778 274.882 54.6111 274.815 54.5444C271.715 52.6444 269.915 49.5444 270.015 46.0444C270.115 43.6444 271.115 41.2445 273.115 39.4445C273.915 38.7445 274.815 38.2444 275.815 37.7444C276.348 31.3444 277.248 24.9778 278.515 18.6444C275.715 16.1444 274.415 12.4444 275.415 8.94445C276.115 6.44445 277.715 4.34445 280.015 3.04445C281.315 2.34445 282.715 1.94444 284.215 1.84444C285.515 1.04444 287.115 0.744445 288.715 1.24444C290.315 1.74444 291.415 2.84445 292.115 4.14445C295.415 6.74445 297.015 10.6444 296.015 14.4444C295.115 17.6444 292.515 20.0444 289.215 20.9444C288.015 26.7444 287.182 32.5778 286.715 38.4445C289.615 40.3445 291.415 43.4444 291.415 46.7444C291.315 50.2444 289.115 53.2444 286.015 54.8444C286.015 57.9778 286.048 61.0778 286.115 64.1444C287.015 63.6444 287.815 63.1444 288.815 62.8444C291.515 61.9444 294.515 62.3445 297.015 63.9445C297.615 64.2778 298.148 64.6778 298.615 65.1444C304.948 63.2111 311.548 61.3778 318.415 59.6444C318.615 58.7444 319.015 57.9444 319.415 57.1444C320.815 54.8444 323.015 53.2444 325.615 52.6444C328.115 51.9444 330.815 52.4444 333.115 53.8444C333.915 54.3444 334.615 54.9444 335.215 55.6444C341.682 54.2444 348.382 52.9111 355.315 51.6444C355.615 50.7444 355.915 49.9444 356.515 49.1444C358.015 46.9444 360.315 45.4444 362.815 45.0444C365.215 44.5444 367.715 45.0444 369.715 46.3444C371.215 47.2444 372.315 48.4444 373.215 49.8444C374.515 50.6444 375.515 51.9444 375.715 53.5444C376.015 55.2444 375.515 56.7445 374.615 57.9445C373.715 61.9445 370.615 65.2444 366.615 66.0444C364.215 66.4444 361.815 65.9444 359.715 64.6444C358.715 64.0444 357.848 63.3111 357.115 62.4445C350.448 63.7111 343.982 65.0111 337.715 66.3444C336.615 69.7444 334.015 72.5444 330.515 73.3444C328.015 73.9444 325.415 73.5444 323.115 72.1444C322.315 71.6444 321.615 71.0444 321.015 70.3444C314.348 72.0111 307.982 73.7444 301.915 75.5444C301.215 79.0444 298.815 82.0444 295.315 83.1444C294.315 83.4444 293.315 83.5444 292.315 83.5444C291.815 85.8444 290.315 87.8444 288.315 89.3444C289.048 95.2778 289.915 101.278 290.915 107.344C291.648 107.544 292.348 107.844 293.015 108.244C295.415 109.744 296.915 112.044 297.415 114.644C298.015 118.144 296.415 121.444 293.715 123.744C294.782 129.744 295.915 135.778 297.115 141.844C297.915 142.144 298.615 142.444 299.315 142.844C301.715 144.344 303.215 146.544 303.715 149.144C304.215 151.544 303.615 154.044 302.215 156.144C301.615 156.944 300.915 157.644 300.115 158.244C300.315 159.244 300.515 160.244 300.715 161.244C300.715 161.378 300.715 161.511 300.715 161.644C301.315 167.744 301.315 173.344 300.915 178.544C303.815 180.744 305.315 184.344 304.715 188.044L304.615 188.244C304.015 190.944 302.415 193.144 299.915 194.544C299.115 195.044 298.215 195.344 297.415 195.544C294.815 202.744 291.115 208.744 286.515 213.944C286.715 214.678 286.815 215.444 286.815 216.244C286.815 217.644 286.615 219.044 286.115 220.244L285.915 220.544C285.315 221.878 284.448 222.978 283.315 223.844C281.115 225.644 278.215 226.444 275.415 225.944C274.515 225.744 273.815 225.444 273.015 225.144C267.515 228.544 261.515 231.444 255.115 233.944C254.915 234.844 254.715 235.844 254.215 236.744C253.115 239.144 251.115 240.844 248.715 241.644C246.115 242.544 243.215 242.244 240.715 240.644C240.048 240.244 239.448 239.778 238.915 239.244C232.915 240.944 226.815 242.444 220.615 243.844C220.415 244.844 220.015 245.744 219.515 246.644C218.315 248.444 216.615 249.844 214.615 250.444C214.748 250.778 214.848 251.111 214.915 251.444C217.015 257.544 219.015 263.644 220.815 269.644C221.948 269.911 223.015 270.344 224.015 270.944C226.115 272.244 227.615 274.244 228.315 276.544C229.115 279.144 228.815 281.844 227.415 284.244C227.015 285.044 226.415 285.744 225.715 286.444C227.515 293.444 229.015 300.344 229.915 307.044C230.315 307.244 230.715 307.478 231.115 307.744C234.015 309.444 235.715 312.444 235.815 315.744C235.915 318.644 234.915 321.344 232.815 323.344C232.215 323.944 231.515 324.444 230.815 324.844C230.515 332.544 229.115 339.844 226.215 346.844C226.715 347.644 227.215 348.444 227.515 349.244C228.415 352.044 228.015 355.044 226.515 357.644C225.215 360.144 222.615 361.944 219.415 362.444ZM204.515 254.844C204.382 254.511 204.282 254.211 204.215 253.944C203.015 253.678 201.848 253.211 200.715 252.544C199.415 251.744 198.315 250.544 197.515 249.244C193.915 250.178 190.315 251.111 186.715 252.044C186.015 255.544 183.715 258.344 180.315 259.344C177.915 260.144 175.115 259.744 172.715 258.344C172.115 257.944 171.548 257.511 171.015 257.044C165.515 259.044 160.115 261.344 155.215 264.044C155.415 267.444 154.015 270.644 151.215 272.444C148.615 274.344 145.115 274.544 142.015 273.044C137.815 276.644 134.215 280.744 131.215 285.444C133.015 288.444 133.315 292.044 131.615 295.044C129.815 298.044 126.715 299.644 123.315 299.744C120.782 305.144 118.615 310.544 116.815 315.944C119.315 318.444 120.415 321.944 119.415 325.144C118.615 328.444 115.915 330.844 112.615 331.744C111.415 337.611 110.482 343.478 109.815 349.344C112.815 351.344 114.515 354.544 114.315 357.844C114.115 361.244 111.815 364.144 108.715 365.644C108.515 371.744 108.515 377.844 108.715 383.844C108.982 383.911 109.248 384.044 109.515 384.244C110.815 385.044 111.915 386.144 112.715 387.444C113.915 386.744 115.115 386.244 116.515 386.044C118.715 385.744 121.015 386.144 123.015 387.444C124.082 388.111 125.015 388.944 125.815 389.944C132.615 388.878 139.048 387.644 145.115 386.244C146.115 382.844 148.715 380.144 152.215 379.344C154.615 378.644 157.315 379.044 159.715 380.444C160.415 380.944 161.015 381.444 161.615 382.044C168.215 380.044 174.215 377.844 179.615 375.444C179.915 371.944 181.715 368.744 184.815 367.244C187.815 365.744 191.315 365.844 194.415 367.644C199.815 364.111 204.315 360.211 207.915 355.944C207.648 355.344 207.448 354.744 207.315 354.144C206.615 351.744 206.915 349.344 208.015 347.044L208.115 346.844C209.415 344.544 211.715 343.044 214.515 342.444C215.048 342.311 215.615 342.211 216.215 342.144C218.315 336.744 219.415 330.944 219.715 324.844C219.648 324.778 219.548 324.711 219.415 324.644C218.948 324.311 218.482 323.978 218.015 323.644C215.915 321.844 214.615 319.344 214.515 316.744C214.415 313.244 216.215 310.144 218.915 308.244C218.115 302.144 216.715 295.744 215.115 289.344C214.015 289.044 213.015 288.644 212.115 288.144C210.015 286.844 208.515 284.844 207.815 282.544C206.815 279.144 207.915 275.544 210.415 272.944C208.515 266.944 206.515 260.944 204.515 254.844ZM286.315 143.844C285.182 137.844 284.048 131.778 282.915 125.644C282.182 125.378 281.448 125.044 280.715 124.644C278.415 123.244 276.815 120.944 276.315 118.244C275.915 115.844 276.515 113.344 278.015 111.244C278.615 110.444 279.315 109.744 280.115 109.144C279.115 102.944 278.215 96.7444 277.415 90.5444C276.882 90.3444 276.348 90.0778 275.815 89.7445C274.315 88.8445 273.115 87.5444 272.315 86.0444C270.648 86.7111 269.015 87.4111 267.415 88.1444C267.115 91.6444 265.215 94.9445 261.915 96.4445C259.515 97.6445 256.715 97.6444 254.015 96.5444C253.515 96.3444 252.915 96.0445 252.315 95.7445C252.248 95.6778 252.182 95.6111 252.115 95.5444C246.182 98.7444 240.748 102.111 235.815 105.644C236.215 108.944 235.115 112.344 232.615 114.644C229.915 116.944 226.215 117.544 222.815 116.344C218.148 120.811 214.148 125.511 210.815 130.444C212.615 133.444 212.815 137.044 211.215 139.944C209.615 142.944 206.615 144.744 203.215 145.044C200.915 150.844 199.515 156.744 198.715 162.844C199.315 163.244 199.848 163.678 200.315 164.144C201.248 165.144 201.948 166.211 202.415 167.344C202.948 168.611 203.215 169.944 203.215 171.344C203.115 174.744 201.015 177.744 198.015 179.544C198.215 185.744 199.015 192.044 200.115 198.444C200.915 198.744 201.715 199.044 202.415 199.544C204.715 200.944 206.315 203.144 206.915 205.644C207.615 209.244 206.315 212.644 203.815 215.044C205.148 220.111 206.582 225.178 208.115 230.244C208.415 230.244 208.615 230.044 208.915 230.044C211.315 229.444 213.815 229.944 215.915 231.244C216.715 231.744 217.515 232.444 218.215 233.244C224.215 231.744 230.115 230.344 235.815 228.744C236.515 225.344 238.715 222.544 241.915 221.444C244.515 220.544 247.415 220.944 249.815 222.444C250.415 222.778 250.948 223.178 251.415 223.644C256.915 221.444 262.015 219.044 266.615 216.144C266.548 215.544 266.515 214.911 266.515 214.244C266.615 211.444 267.715 208.944 269.715 207.344C270.782 206.544 271.982 206.011 273.315 205.744C274.448 205.478 275.648 205.411 276.915 205.544C277.515 205.611 278.082 205.744 278.615 205.944C282.015 202.044 284.715 197.644 286.615 192.444C284.215 190.144 283.115 186.944 283.715 183.944C284.315 180.744 286.715 178.244 289.915 177.044C290.315 172.644 290.315 168.044 289.815 162.944C289.682 162.078 289.515 161.211 289.315 160.344C288.615 160.044 287.815 159.744 287.115 159.244C284.815 157.844 283.215 155.644 282.715 153.044C282.215 150.444 283.015 147.644 284.715 145.444C285.182 144.844 285.715 144.311 286.315 143.844Z" stroke="#5D8AA8" stroke-opacity="0.15" stroke-width="2" stroke-miterlimit="10"/>
<path d="M296.015 14.4445L361.215 47.7445" stroke="#5D8AA8" stroke-opacity="0.15" stroke-width="2" stroke-miterlimit="10"/>
<path d="M291.415 46.7444L325.615 52.6444" stroke="#5D8AA8" stroke-opacity="0.15" stroke-width="2" stroke-miterlimit="10"/>
<path d="M261.915 96.4445L276.915 114.844" stroke="#5D8AA8" stroke-opacity="0.15" stroke-width="2" stroke-miterlimit="10"/>
<path d="M232.615 114.644L282.715 153.044" stroke="#5D8AA8" stroke-opacity="0.15" stroke-width="2" stroke-miterlimit="10"/>
<path d="M211.215 139.944L283.715 183.944" stroke="#5D8AA8" stroke-opacity="0.15" stroke-width="2" stroke-miterlimit="10"/>
<path d="M203.215 171.344L269.715 207.344" stroke="#5D8AA8" stroke-opacity="0.15" stroke-width="2" stroke-miterlimit="10"/>
<path d="M206.915 205.644L241.915 221.444" stroke="#5D8AA8" stroke-opacity="0.15" stroke-width="2" stroke-miterlimit="10"/>
<path d="M183.515 257.144L207.815 276.544" stroke="#5D8AA8" stroke-opacity="0.15" stroke-width="2" stroke-miterlimit="10"/>
<path d="M151.215 272.444L214.515 312.644" stroke="#5D8AA8" stroke-opacity="0.15" stroke-width="2" stroke-miterlimit="10"/>
<path d="M131.615 295.044L208.115 346.844" stroke="#5D8AA8" stroke-opacity="0.15" stroke-width="2" stroke-miterlimit="10"/>
<path d="M119.415 325.144L184.815 367.244" stroke="#5D8AA8" stroke-opacity="0.15" stroke-width="2" stroke-miterlimit="10"/>
<path d="M114.315 357.844L152.215 379.344" stroke="#5D8AA8" stroke-opacity="0.15" stroke-width="2" stroke-miterlimit="10"/>
<path d="M81.5151 410.944L95.3151 423.844" stroke="#5D8AA8" stroke-opacity="0.15" stroke-width="2" stroke-miterlimit="10"/>
<path d="M49.1151 419.344L94.1151 461.344" stroke="#5D8AA8" stroke-opacity="0.15" stroke-width="2" stroke-miterlimit="10"/>
<path d="M18.6151 436.444L84.8151 489.944" stroke="#5D8AA8" stroke-opacity="0.15" stroke-width="2" stroke-miterlimit="10"/>
<path d="M-4.5849 460.244L62.5151 508.844" stroke="#5D8AA8" stroke-opacity="0.15" stroke-width="2" stroke-miterlimit="10"/>
<path d="M-14.6849 490.344L31.8151 518.944" stroke="#5D8AA8" stroke-opacity="0.15" stroke-width="2" stroke-miterlimit="10"/>
</svg>
