<svg width="95" height="36" viewBox="0 0 95 36" fill="none" xmlns="http://www.w3.org/2000/svg">
<path d="M58.7643 31.5059C55.8358 31.2364 53.1198 29.9826 50.7996 28.4256C50.4788 28.231 50.1877 28.0192 49.9262 27.7899C49.635 27.5781 49.3439 27.3662 49.0988 27.1513C48.5625 26.7245 48.0262 26.2977 47.5329 25.8219C46.4542 24.8763 45.5596 23.9186 44.662 22.915C42.9127 20.9046 41.3874 18.7871 40.0461 16.6575C38.6589 14.5309 37.4526 12.3462 36.0223 10.2687C35.2627 9.25592 34.4601 8.2922 33.5225 7.38356C32.5419 6.52394 31.3404 5.81745 30.019 5.39607C29.0777 5.13452 28.0965 4.96801 27.0814 4.98853L27.0784 4.94252C28.0935 4.922 29.1147 4.99349 30.0529 5.20903C31.5063 5.52933 32.8367 6.08873 34.0843 6.79218C35.3318 7.49564 36.4964 8.34317 37.572 9.24274C39.7202 10.9959 41.5615 13.0002 43.0837 15.0717C44.655 17.1862 45.9963 19.3158 47.3376 21.4454C48.7249 23.572 49.9741 25.7076 51.7603 27.577C52.655 28.5346 53.6785 29.3452 54.834 30.0547C55.9895 30.7642 57.3569 31.1826 58.8043 31.4109C59.6444 31.5405 60.5676 31.526 61.4417 31.4685L61.4447 31.5145C60.5246 31.575 59.6475 31.5865 58.7643 31.5059Z" fill="#0044FA"/>
<path d="M29.6325 31.8498C29.0133 31.5671 28.477 31.1403 27.9897 30.7565C27.4994 30.3267 26.9631 29.8999 26.5618 29.4181C25.7132 28.4574 24.9536 27.4446 24.286 26.4258C23.6 25.3621 22.9437 24.2809 22.3171 23.1824C21.6924 22.1146 21.0678 21.0468 20.3941 19.936C19.0498 17.7603 17.6165 15.6368 15.9072 13.5314C15.0986 12.4756 14.1549 11.475 13.1223 10.5264C12.0897 9.5778 10.9221 8.68427 9.62551 7.93783C8.28597 7.24042 6.81446 6.6441 5.2261 6.37888C3.68376 6.11063 2.07057 6.17046 0.61051 6.45125C0.47552 6.50633 0.386531 6.55838 0.346575 6.65341C0.355647 6.79143 0.456728 6.9234 0.597767 6.96033L0.643774 6.95731C2.08504 7.09359 3.40039 7.42296 4.6328 7.89639C5.81921 8.37285 6.8797 9.0424 7.85423 9.81C8.82876 10.5776 9.71732 11.4433 10.5169 12.361C11.3195 13.3247 12.0761 14.2914 12.8357 15.3042C14.3059 17.2867 15.6472 19.4163 17.1725 21.5338C17.8892 22.5956 18.7408 23.6023 19.5924 24.609C20.0427 25.1338 20.4441 25.6157 20.9404 26.1375L21.6359 26.8773L22.3743 27.568C23.3609 28.5196 24.4365 29.4192 25.5981 30.2207C26.1804 30.6444 26.8027 30.9732 27.3819 31.3509C28.0502 31.6766 28.6724 32.0054 29.3807 32.236C30.7111 32.7954 32.1215 33.1648 33.6027 33.206C34.1895 33.229 34.7752 33.2367 35.36 33.2291L35.357 33.1831C33.3297 33.2702 31.2692 32.8511 29.6325 31.8498Z" fill="#0044FA"/>
<g style="mix-blend-mode:screen">
<path d="M21.5843 6.41256L22.8695 25.9646C22.8755 26.0566 22.7896 26.1546 22.7436 26.1577C22.6516 26.1637 22.5535 26.0777 22.5475 25.9857L21.2623 6.43373C21.2562 6.34172 21.3452 6.28967 21.4372 6.28362C21.4832 6.2806 21.5783 6.32055 21.5843 6.41256Z" fill="#5D8AA8"/>
<path d="M30.442 5.50688L32.2413 32.8797C32.2443 32.9257 32.1584 33.0238 32.1124 33.0268C32.0204 33.0328 31.9223 32.9469 31.9193 32.9009L30.12 5.52805C30.1139 5.43604 30.2029 5.38398 30.2949 5.37793C30.3409 5.37491 30.436 5.41487 30.442 5.50688Z" fill="#5D8AA8"/>
<path d="M25.9373 5.15614L27.6368 31.0108C27.6399 31.0568 27.5999 31.1518 27.5079 31.1579C27.4159 31.1639 27.3638 31.0749 27.3608 31.0289L25.6613 5.17429C25.6553 5.08228 25.6952 4.98723 25.7872 4.98118C25.8793 4.97514 25.9313 5.06413 25.9373 5.15614Z" fill="#5D8AA8"/>
<path d="M35.0429 8.02284L36.688 33.0494C36.694 33.1414 36.651 33.1904 36.559 33.1965C36.467 33.2025 36.418 33.1596 36.4119 33.0676L34.7669 8.04098C34.7639 7.99498 34.8038 7.89994 34.8958 7.89389C34.9878 7.88784 35.0399 7.97683 35.0429 8.02284Z" fill="#5D8AA8"/>
<path d="M40.7896 31.4861L40.1237 22.0582L39.5497 12.6242C39.5467 12.5782 39.5897 12.5291 39.6817 12.5231C39.7277 12.5201 39.7767 12.563 39.7798 12.609L40.4457 22.037L41.0196 31.471C41.0226 31.517 40.9797 31.566 40.9336 31.5691C40.8416 31.5751 40.7926 31.5321 40.7896 31.4861Z" fill="#5D8AA8"/>
<path d="M44.7027 18.6154L45.3377 28.2764C45.3438 28.3684 45.2548 28.4204 45.1628 28.4265C45.0708 28.4325 45.0218 28.3895 45.0157 28.2975L44.3807 18.6365C44.3746 18.5445 44.4146 18.4495 44.5066 18.4435C44.5986 18.4374 44.6967 18.5234 44.7027 18.6154Z" fill="#5D8AA8"/>
<path d="M17.3274 9.83421L17.9261 18.9431C17.9322 19.0351 17.8892 19.0842 17.7972 19.0902C17.7052 19.0963 17.6562 19.0533 17.6501 18.9613L17.0514 9.85235C17.0453 9.76034 17.0853 9.66531 17.1773 9.65926C17.2693 9.65321 17.3213 9.7422 17.3274 9.83421Z" fill="#5D8AA8"/>
</g>
<g style="mix-blend-mode:screen">
<path d="M72.1588 3.31916L73.4288 22.6411C73.4349 22.7332 73.3489 22.8312 73.2569 22.8373C73.2109 22.8403 73.1128 22.7543 73.1068 22.6623L71.8367 3.34033C71.8307 3.24832 71.9197 3.19627 71.9657 3.19325C72.0577 3.1872 72.1527 3.22715 72.1588 3.31916Z" fill="#5D8AA8"/>
<path d="M63.2344 3.21273L65.0337 30.5855C65.0397 30.6776 64.9538 30.7756 64.8618 30.7817C64.8158 30.7847 64.7177 30.6987 64.7117 30.6067L62.9124 3.23389C62.9063 3.14189 62.9953 3.08984 63.0413 3.08681C63.1333 3.08077 63.2284 3.12072 63.2344 3.21273Z" fill="#5D8AA8"/>
<path d="M67.6175 2.41637L69.317 28.271C69.32 28.317 69.2801 28.4121 69.1881 28.4181C69.0961 28.4242 69.044 28.3352 69.041 28.2892L67.3415 2.43451C67.3354 2.3425 67.3754 2.24746 67.4674 2.24141C67.5594 2.23536 67.6115 2.32436 67.6175 2.41637Z" fill="#5D8AA8"/>
<path d="M58.9656 6.45038L60.6136 31.523C60.6197 31.615 60.5767 31.664 60.4847 31.67C60.3927 31.6761 60.3437 31.6331 60.3376 31.5411L58.6895 6.46852C58.6865 6.42251 58.7265 6.32747 58.8185 6.32143C58.9105 6.31538 58.9625 6.40437 58.9656 6.45038Z" fill="#5D8AA8"/>
<path d="M55.8485 30.7272L55.1765 21.2073L54.5935 11.6353C54.5905 11.5893 54.6335 11.5403 54.6795 11.5372C54.7715 11.5312 54.8205 11.5742 54.8235 11.6202L55.4985 21.1861L56.0785 30.7121C56.0815 30.7581 56.0416 30.8532 55.9495 30.8592C55.9035 30.8622 55.8515 30.7732 55.8485 30.7272Z" fill="#5D8AA8"/>
<path d="M50.8213 18.2132L51.4564 27.8741C51.4624 27.9662 51.4195 28.0152 51.3274 28.0212C51.2354 28.0273 51.1404 27.9873 51.1344 27.8953L50.4993 18.2343C50.4933 18.1423 50.5792 18.0443 50.6712 18.0382C50.7633 18.0322 50.8153 18.1211 50.8213 18.2132Z" fill="#5D8AA8"/>
<path d="M76.7657 5.92716L77.3645 15.0361C77.3705 15.1281 77.3276 15.1771 77.2355 15.1832C77.1435 15.1892 77.0945 15.1462 77.0885 15.0542L76.4897 5.94531C76.4837 5.8533 76.5236 5.75827 76.6156 5.75222C76.7076 5.74617 76.7597 5.83515 76.7657 5.92716Z" fill="#5D8AA8"/>
</g>
<path d="M67.3416 2.43454C68.7768 2.47881 70.1841 2.80213 71.5116 3.31552C72.793 3.83193 73.9485 4.54143 75.0151 5.30299C76.0846 6.11055 77.0652 6.97016 77.9998 7.8328C78.921 8.72712 79.8126 9.63879 80.6745 10.5678L83.3523 13.3488C86.8327 17.0935 90.0492 21.0404 93.7227 24.9111L93.7257 24.9571C93.7747 25.0001 93.9158 25.037 94.0078 25.0309C94.1888 24.9728 94.2717 24.8288 94.2197 24.7398C93.5013 22.2458 92.335 19.9661 90.9876 17.7445C89.5973 15.5719 87.98 13.4605 86.1848 11.4531C84.3465 9.49478 82.1953 7.69564 79.7402 6.19369C78.5387 5.48721 77.2021 4.8358 75.8717 4.27641C74.4952 3.72004 73.1248 3.25567 71.6684 2.88937C70.261 2.56605 68.8137 2.33776 67.3355 2.34252C66.8734 2.34209 66.4124 2.35699 65.9523 2.38723L65.9554 2.43324C66.4154 2.403 66.8775 2.40344 67.3416 2.43454Z" fill="#0070FF"/>
<g style="mix-blend-mode:screen">
<path d="M91.0709 0.736129L92.4559 21.8063C92.4589 21.8523 92.373 21.9504 92.281 21.9564C92.2349 21.9594 92.1369 21.8735 92.1339 21.8275L90.7489 0.757298C90.7428 0.665289 90.8318 0.613242 90.8778 0.610218C90.9698 0.60417 91.0649 0.644121 91.0709 0.736129Z" fill="#5D8AA8"/>
<path d="M84.633 4.71698L85.2318 13.8259C85.2378 13.9179 85.1949 13.967 85.1029 13.973C85.0108 13.9791 84.9158 13.9391 84.9098 13.8471L84.311 4.73815C84.305 4.64614 84.3939 4.59408 84.486 4.58803C84.578 4.58198 84.627 4.62497 84.633 4.71698Z" fill="#5D8AA8"/>
</g>
<g style="mix-blend-mode:screen">
<path d="M2.32776 6.56941L3.71275 27.6396C3.71577 27.6856 3.6298 27.7836 3.5838 27.7867C3.49179 27.7927 3.39373 27.7068 3.39071 27.6608L2.00572 6.59058C1.99967 6.49857 2.08865 6.44652 2.18066 6.44048C2.22667 6.43745 2.32171 6.4774 2.32776 6.56941Z" fill="#5D8AA8"/>
<path d="M9.23131 9.67331L9.83006 18.7822C9.8361 18.8743 9.74712 18.9263 9.65511 18.9324C9.5631 18.9384 9.51407 18.8954 9.50802 18.8034L8.90927 9.69448C8.90322 9.60247 8.94621 9.55343 9.03822 9.54739C9.13023 9.54134 9.22526 9.5813 9.23131 9.67331Z" fill="#5D8AA8"/>
</g>
<path d="M66.9423 29.3974C67.5191 29.036 67.949 28.5458 68.4278 28.0985C68.8576 27.6082 69.2874 27.1179 69.6222 26.5876C70.3837 25.5211 70.9582 24.4207 71.5328 23.3202C72.0736 22.1758 72.5674 21.019 73.0142 19.85C73.4937 18.7096 73.9731 17.5692 74.4956 16.3797C75.5436 14.0469 76.6865 11.754 78.1055 9.44294C78.8151 8.28742 79.6196 7.17186 80.5192 6.09625C81.4187 5.02064 82.4593 3.98196 83.647 3.07223C84.8837 2.20548 86.2645 1.42166 87.7585 0.953834C89.2985 0.48298 90.8596 0.334158 92.3899 0.418385C92.5309 0.455318 92.6259 0.495272 92.632 0.587282C92.6871 0.722272 92.6041 0.866339 92.4231 0.92444C91.0121 1.24821 89.7052 1.74995 88.5914 2.37761C87.4315 3.00829 86.4678 3.81089 85.6021 4.69946C84.7825 5.585 84.0149 6.55953 83.3423 7.57401C82.6727 8.6345 82.0032 9.69498 81.4287 10.7954C80.2306 12.9533 79.1797 15.2402 77.9447 17.5391C77.3272 18.6886 76.6606 19.7951 75.9481 20.9046C75.5704 21.4839 75.1896 22.0172 74.8118 22.5964L74.2192 23.4209L73.5775 24.2023C72.6779 25.2779 71.7753 26.3075 70.6827 27.2572C70.2069 27.7505 69.633 28.1578 69.0621 28.6112C68.4883 29.0186 67.9144 29.4259 67.2425 29.7473C65.9967 30.476 64.6008 31.0298 63.1377 31.2646C62.5897 31.3622 62.0253 31.4455 61.4446 31.5145L61.4416 31.4685C63.4627 31.2894 65.4507 30.6043 66.9423 29.3974Z" fill="#003262"/>
<path d="M37.9702 32.8727C40.8842 32.2192 43.4128 30.6206 45.5091 28.7733C45.771 28.5405 46.0319 28.2923 46.2918 28.0288C46.5067 27.7837 46.7676 27.5355 47.0285 27.2873C47.5043 26.794 47.9802 26.3007 48.4069 25.7644C49.3065 24.6888 50.1141 23.6192 50.8266 22.5097C52.3437 20.2847 53.5327 17.9887 54.6296 15.6989C55.7266 13.409 56.6365 11.0852 57.7825 8.83831C58.3571 7.73786 59.0266 6.67737 59.8832 5.65079C60.7428 4.67022 61.7955 3.81555 63.0964 3.22181C63.9953 2.83929 64.9463 2.54577 65.9554 2.43324L65.9524 2.38723C64.9433 2.49976 63.9402 2.70431 62.9923 3.04384C61.6394 3.5486 60.3476 4.28036 59.2028 5.14107C58.1041 5.99875 57.0145 6.99445 56.1119 8.02406C54.2117 10.0433 52.6486 12.2714 51.3646 14.5274C50.0836 16.8293 49.0326 19.1162 47.9816 21.403C46.9307 23.6899 45.9257 25.9737 44.3996 28.0608C43.684 29.1243 42.7754 30.0619 41.7227 30.9166C40.624 31.7742 39.3231 32.368 37.9641 32.7807C37.1021 33.0222 36.2311 33.1257 35.357 33.1831L35.36 33.2291C36.2341 33.1717 37.1051 33.0682 37.9702 32.8727Z" fill="#003262"/>
<path d="M25.7072 5.17126C24.2902 5.40302 22.8912 5.9108 21.6884 6.59051C20.4856 7.27022 19.3869 8.1279 18.4292 9.02251C17.4746 9.96313 16.615 10.9437 15.8474 11.9182C15.0511 12.9254 14.2712 13.947 13.5076 14.9829L11.2629 18.0874C8.25661 22.2585 5.58447 26.5925 2.49526 30.9077L2.49829 30.9537C2.4093 31.0057 2.32031 31.0578 2.18229 31.0669C2.04126 31.0299 1.94017 30.8979 1.93413 30.8059C2.36587 28.2364 3.22375 25.8236 4.26868 23.4447C5.36263 21.1089 6.64362 18.8069 8.20669 16.5788C9.72678 14.3997 11.624 12.3345 13.8614 10.5241C15.0061 9.66336 16.2458 8.8426 17.4916 8.11387C18.7374 7.38513 20.0813 6.74235 21.4312 6.19158C22.8301 5.68379 24.2351 5.26802 25.7012 5.07924C26.1592 5.01834 26.6183 4.97276 27.0783 4.94252L27.0813 4.98853C26.6213 5.01876 26.1633 5.07968 25.7072 5.17126Z" fill="#003262"/>
</svg>
