<svg width="396" height="206" viewBox="0 0 396 206" fill="none" xmlns="http://www.w3.org/2000/svg">
<path d="M1 205.04C1 205.04 71.5 184.74 86.5 124.74C92.1 102.44 115.6 25.1402 148.3 43.6402C180.9 62.1402 192.3 124.74 223.2 100.14C254.1 75.4402 270.8 -4.85986 300.8 1.34014C330.8 7.54014 348.4 81.5402 371.4 85.9402C394.3 90.4402 412.8 54.2402 412.8 54.2402" stroke="#5D8AA8" stroke-opacity="0.15" stroke-width="2" stroke-miterlimit="10"/>
<path d="M1.5 191.04C1.5 191.04 103.9 197.94 134.3 154.24C170 102.84 176.7 -5.45981 208 16.9402C239.2 39.2402 268.3 141.94 308.4 129.64C348.6 117.34 394.4 2.44019 394.4 2.44019" stroke="#5D8AA8" stroke-opacity="0.15" stroke-width="2" stroke-miterlimit="10"/>
</svg>
